<?xml version="1.0" encoding="utf-8"?>
<!-- Generator: Adobe Illustrator 15.0.2, SVG Export Plug-In . SVG Version: 6.00 Build 0)  -->
<!DOCTYPE svg PUBLIC "-//W3C//DTD SVG 1.1//EN" "http://www.w3.org/Graphics/SVG/1.1/DTD/svg11.dtd">
<svg version="1.1" id="Layer_1" xmlns="http://www.w3.org/2000/svg" xmlns:xlink="http://www.w3.org/1999/xlink" x="0px" y="0px"
	 width="185.618px" height="20px" viewBox="0 0 185.618 20" enable-background="new 0 0 185.618 20" xml:space="preserve">
<g>
	<g>
		<g>
			<path fill="#27301E" d="M99.195,14.294c0.109,1.935,0.709,2.863,1.963,2.863c1.092,0,1.826-0.736,1.826-1.854
				c0-1.608-1.088-2.59-2.67-4.172c-2.153-2.154-3.681-3.734-3.681-6.27c0-2.782,2.1-4.826,4.607-4.826
				c2.455,0,4.225,1.771,4.444,4.771l-2.889,0.408c-0.109-1.662-0.545-2.399-1.637-2.399c-0.927,0-1.582,0.683-1.582,1.772
				c0,1.744,1.282,2.918,2.97,4.553c2.047,1.99,3.329,3.436,3.329,6.107c0,2.836-1.963,4.799-4.608,4.799
				c-2.889,0-4.771-1.935-4.907-5.316L99.195,14.294z"/>
		</g>
	</g>
	<g>
		<g>
			<path fill="#27301E" d="M111.903-0.047c2.699,0,4.473,1.827,4.473,4.935v9.87c0,3.407-1.691,5.263-4.582,5.263
				c-2.943,0-4.553-1.827-4.553-5.346V4.807C107.241,1.808,108.96-0.047,111.903-0.047z M113.321,4.615
				c0-1.336-0.518-1.99-1.525-1.99c-1.01,0-1.527,0.654-1.527,1.99v10.742c0,1.336,0.518,2.018,1.527,2.018
				c1.008,0,1.525-0.682,1.525-2.018V4.615z"/>
		</g>
	</g>
	<g>
		<g>
			<path fill="#27301E" d="M118.823,0.362h2.945v16.467h4.607v2.781h-7.553V0.362z"/>
		</g>
	</g>
	<g>
		<g>
			<path fill="#27301E" d="M130.177,0.362v14.914c0,1.171,0.682,1.826,1.582,1.826s1.5-0.655,1.5-1.826V0.362h3.025v14.396
				c0,3.406-1.662,5.262-4.553,5.262c-2.943,0-4.58-1.827-4.58-5.345V0.362H130.177z"/>
		</g>
	</g>
	<g>
		<g>
			<path fill="#27301E" d="M137.53,0.362h9.16v2.78h-3.107V19.61h-2.973V3.143h-3.08V0.362z"/>
		</g>
	</g>
	<g>
		<g>
			<path fill="#27301E" d="M147.887,0.362h3.025V19.61h-3.025V0.362z"/>
		</g>
	</g>
	<g>
		<g>
			<path fill="#27301E" d="M158.024-0.047c2.699,0,4.471,1.827,4.471,4.935v9.87c0,3.407-1.691,5.263-4.58,5.263
				c-2.945,0-4.553-1.827-4.553-5.346V4.807C153.362,1.808,155.081-0.047,158.024-0.047z M159.442,4.615
				c0-1.336-0.518-1.99-1.527-1.99c-1.008,0-1.527,0.654-1.527,1.99v10.742c0,1.336,0.52,2.018,1.527,2.018
				c1.01,0,1.527-0.682,1.527-2.018V4.615z"/>
		</g>
	</g>
	<g>
		<g>
			<path fill="#27301E" d="M164.942,0.362h2.674l3.762,11.506c0.055,0.163,0.271,0.845,0.572,2.044
				c-0.246-1.363-0.328-2.262-0.328-2.59V0.362h2.781V19.61h-2.781l-3.625-10.632c-0.164-0.49-0.408-1.172-0.627-2.1
				c0.219,1.362,0.326,2.263,0.326,2.672v10.06h-2.754V0.362L164.942,0.362z"/>
		</g>
	</g>
	<g>
		<g>
			<path fill="#27301E" d="M178.583,14.294c0.111,1.935,0.709,2.863,1.965,2.863c1.092,0,1.826-0.736,1.826-1.854
				c0-1.608-1.09-2.59-2.672-4.172c-2.152-2.154-3.68-3.734-3.68-6.27c0-2.782,2.1-4.826,4.607-4.826
				c2.455,0,4.227,1.771,4.443,4.771l-2.891,0.408c-0.109-1.662-0.543-2.399-1.635-2.399c-0.928,0-1.582,0.683-1.582,1.772
				c0,1.744,1.281,2.918,2.971,4.553c2.047,1.99,3.328,3.436,3.328,6.107c0,2.836-1.965,4.799-4.607,4.799
				c-2.891,0-4.771-1.935-4.906-5.316L178.583,14.294z"/>
		</g>
	</g>
	<path fill="#27301E" d="M59.723,0.616c-0.668-0.214-1.279-0.241-1.83-0.085l-0.174-0.096c-0.308,0.135-0.597,0.168-0.87,0.096
		l-0.349,0.266v0.906l0.092,0.545l-0.092,0.275l0.092,0.449c-0.075,1.15-0.075,2.089,0,2.814v1.546v0.361v2.718l0.082,0.184
		c-0.088,0.453-0.116,0.844-0.082,1.172l0.082,0.543l-0.082,0.458l0.082,0.544l-0.082,0.459l0.082,0.266v5.171l0.092,0.543
		c0.531-0.041,0.996,0.018,1.391,0.182c0.682-0.185,1.263-0.276,1.74-0.276V18.93v-0.267v-1.812v-0.363v-1.546v-0.267V13.59v-0.277
		v-0.277v-1.173v-0.276v-0.268v-0.277v-0.629V10.05V8.419V7.151V6.692V5.787V5.509V3.975V3.516V3.25V2.973l-0.092-0.182
		c0-0.299,0.029-0.541,0.092-0.725L59.723,0.616z"/>
	<path fill="#27301E" d="M37.743,16.308l-0.082-0.363v-0.277v-0.649l-0.092-0.277c0.135-0.646,0.135-1.229,0-1.749l0.092-0.372
		c-0.103-0.249-0.133-0.494-0.092-0.736v-0.277v-1.204v-0.276V9.846V8.652V8.1V7.545l-0.092-0.65
		c-0.014-0.49,0.018-0.92,0.092-1.289l-0.092-0.555c0.033-0.477,0.033-0.877,0-1.204V3.569c0-0.306,0.031-0.552,0.092-0.735
		c-0.076-0.064-0.105-0.124-0.092-0.182c0.075-0.832,0.048-1.57-0.082-2.217h-0.358h-1.505h-0.266h-1.062v0.277
		c-0.028,0.476-0.028,0.877,0,1.205v4.423c-0.014,0.938,0.017,1.71,0.091,2.312c-0.062,0.675-0.034,1.259,0.082,1.749v0.277
		l-0.082,0.277v2.676c0.026,0.092,0.026,0.185,0,0.276v0.277c0.075,0.726,0.104,1.34,0.082,1.844
		c0.177,0.341,0.267,0.65,0.267,0.929c0.832,1.69,2.016,2.675,3.549,2.952c0.076-0.093,0.164-0.153,0.267-0.182
		c-0.062-0.683-0.062-1.236,0-1.662C38.46,17.264,38.22,16.677,37.743,16.308z"/>
	<path fill="#27301E" d="M43.677,14.09v-0.544V13.27v-0.374l-0.082-1.565v-0.277v-0.277V9.112V8.74V8.462V8.1V6.438V6.062
		l-0.092-0.639l0.092-0.277V4.869l-0.092-0.191L43.594,4.4c-0.102-0.44-0.133-0.839-0.092-1.193
		c0.074-1.045,0.018-1.936-0.174-2.676l-0.184-0.096h-0.35H42.53h-0.357h-1.597c-0.218,0.369-0.333,0.707-0.348,1.012v1.205
		c0.089,0.355,0.116,0.661,0.082,0.917c0,0.589-0.026,1.083-0.082,1.481v1.012l0.082,0.555l0.093,6.098
		c0.162,0.847,0.252,1.521,0.266,2.025l0.091,0.459l-0.185,0.096c-0.129,0.661-0.395,1.184-0.797,1.566v0.832
		c0.074,0.063,0.105,0.128,0.092,0.191v0.267c-0.014,0.575-0.014,1.069,0,1.481c0.136,0.078,0.225,0.171,0.266,0.277
		c1.432-0.599,2.496-1.521,3.191-2.771c0.054-0.262,0.143-0.477,0.266-0.639c0.027-0.512,0.086-0.945,0.175-1.301l-0.092-0.64
		L43.677,14.09L43.677,14.09z"/>
	<path fill="#27301E" d="M54.268,0.436L53.921,0.52h-0.695h-0.43H52.53h-0.604h-0.268c-0.633,0.107-1.182,0.139-1.646,0.096h-0.257
		h-1.564h-0.951h-0.266c-0.683-0.027-1.262,0-1.739,0.086l-0.083,0.18l0.083,0.46v0.992c-0.027,0.604,0.031,1.118,0.174,1.544
		l0.267,0.086h0.256h0.264c0.432-0.027,0.807,0.004,1.127,0.096c0.348-0.12,0.665-0.182,0.951-0.182l0.174,0.182l0.092,1.174
		l-0.092,0.629v4.531c0.062,0.554,0.062,1.037,0,1.449v0.353c0.088,0.454,0.088,0.849,0,1.182c0.151,0.931,0.181,1.717,0.092,2.356
		c0.075,0.057,0.103,0.118,0.082,0.182v1.533c0.076,0.483,0.049,0.935-0.082,1.354l0.349,1.087c0.374,0,0.692-0.06,0.95-0.181
		c0.853,0.178,1.576,0.116,2.17-0.182v-0.629v-0.64V17.99v-0.362c-0.082-0.574-0.109-1.058-0.082-1.45v-0.809V14.73v-0.544v-0.544
		c0.014-0.554-0.018-1.037-0.092-1.45l0.092-0.351v-0.545l-0.092-0.361l0.092-0.543l-0.092-0.362V9.668V8.666V8.217V7.043V6.681
		V5.137V4.869V3.781L52.1,3.877l0.348-0.096l0.174,0.096h0.256h0.267h1.728c0.219-1.221,0.16-2.342-0.174-3.357L54.268,0.436z"/>
	<path fill="#27301E" d="M81.622,14.09v-0.544V13.27v-0.374L81.54,11.33v-0.277v-0.277V9.112V8.74V8.462V8.1V6.438V6.062
		l-0.092-0.639l0.092-0.277V4.869l-0.092-0.191L81.54,4.4c-0.103-0.44-0.133-0.839-0.092-1.193c0.076-1.045,0.018-1.936-0.174-2.676
		l-0.184-0.096h-0.348h-0.267h-0.358h-1.596c-0.217,0.369-0.334,0.707-0.348,1.012v1.205c0.088,0.355,0.116,0.661,0.082,0.917
		c0,0.589-0.027,1.083-0.082,1.481v1.012l0.082,0.555l0.092,6.098c0.164,0.847,0.253,1.521,0.266,2.025l0.092,0.459l-0.185,0.096
		c-0.128,0.661-0.396,1.184-0.798,1.566v0.832c0.075,0.063,0.105,0.128,0.092,0.191v0.267c-0.014,0.575-0.014,1.069,0,1.481
		c0.137,0.078,0.225,0.171,0.266,0.277c1.433-0.599,2.496-1.521,3.191-2.771c0.055-0.262,0.145-0.477,0.268-0.639
		c0.026-0.512,0.085-0.945,0.172-1.301l-0.09-0.64V14.09L81.622,14.09z"/>
	<path fill="#27301E" d="M92.306,16.819l-0.338-0.184c-0.825,0.18-1.549,0.18-2.169,0c-0.464,0.093-0.871,0.064-1.219-0.085
		c-0.722,0.178-1.359,0.117-1.912-0.181v-0.64v-0.544v-0.629v-0.543l0.092-0.63l-0.092-0.542v-0.268v-0.362v-0.725v-0.267v-0.276
		c-0.026-0.634,0.004-1.145,0.092-1.536l-0.174-0.628V8.152l0.082-0.543V7.332V7.065c-0.082-0.47-0.109-0.892-0.082-1.269
		l0.082-0.267c-0.055-0.349-0.055-0.649,0-0.907l-0.082-0.361c0.13-1.428,0.072-2.629-0.174-3.604
		c-0.648-0.12-1.197-0.152-1.646-0.096c-0.055,0.078-0.113,0.11-0.175,0.096h-0.695l-0.604,0.086L83.12,1.193l0.082,10.029
		l-0.082,0.629c0.053,0.591,0.053,1.103,0,1.535c0.014,0.633,0.014,1.145,0,1.535v4.52l0.255,0.182l0.347,0.085h0.35l0.348,0.096
		h0.348h1.125h0.266h0.43h0.348h0.257h0.439h0.43h0.266h1.034h0.265c0.778-0.049,1.443-0.021,1.995,0.086
		c0.314-0.08,0.572-0.167,0.777-0.267v-0.279C92.453,18.308,92.423,17.466,92.306,16.819z"/>
	<path fill="#27301E" d="M69.967,0.318l-0.521,0.084h-0.44H68.74l-0.174-0.084c-0.436,0.042-0.784,0.042-1.044,0l-0.613,0.084H65.68
		h-0.264c-0.273-0.056-0.506-0.084-0.697-0.084h-0.961l-0.267-0.096h-1.751L61.393,0.68v12.942v0.458v2.824l-0.09,0.277l0.09,0.459
		c-0.135,0.817-0.166,1.485-0.09,2.003l0.347,0.182l0.267-0.096c0.791-0.149,1.49-0.118,2.098,0.096l0.439-0.182v-1.183v-0.373
		v-1.631v-1.015v-0.361V14.72v-0.363v-0.36v-1.559v-0.267v-1.098l0.266,0.085h0.348h0.35h0.611h1.576l0.348-0.628v-0.373V9.891
		L67.87,9.709c0.068-0.598,0.068-1.145,0-1.643l-0.439-0.19c-1.14,0.128-2.102,0.067-2.886-0.182l0.083-0.448l-0.083-0.277
		l0.083-0.459l-0.083-0.725V5.509l0.083-1.642c0.252-0.198,0.486-0.318,0.705-0.361l0.348,0.086l0.44-0.086
		c0.361,0.078,0.683,0.106,0.962,0.086h0.439h0.257h0.347l0.266-0.086l0.175,0.086l0.174-0.086c0.56,0.093,1.026,0.121,1.401,0.086
		c0.422-1.061,0.539-2.09,0.349-3.093L69.967,0.318z"/>
	<path fill="#27301E" d="M75.688,16.308l-0.08-0.363v-0.277v-0.649l-0.092-0.277c0.135-0.646,0.135-1.229,0-1.749l0.092-0.372
		c-0.104-0.249-0.135-0.494-0.092-0.736v-0.277v-1.204v-0.276V9.846V8.652V8.1V7.545l-0.093-0.65
		c-0.015-0.49,0.017-0.92,0.093-1.289l-0.093-0.555c0.034-0.477,0.034-0.877,0-1.204V3.569c0-0.306,0.03-0.552,0.093-0.735
		C75.44,2.77,75.409,2.71,75.424,2.652c0.075-0.832,0.048-1.57-0.082-2.217h-0.358h-1.504h-0.267h-1.063v0.277
		c-0.027,0.476-0.027,0.877,0,1.205v4.423c-0.014,0.938,0.018,1.71,0.092,2.312c-0.061,0.675-0.035,1.259,0.083,1.749v0.277
		l-0.083,0.277v2.676c0.027,0.092,0.027,0.185,0,0.276v0.277c0.076,0.726,0.103,1.34,0.083,1.844
		c0.178,0.341,0.266,0.65,0.266,0.929c0.831,1.69,2.016,2.675,3.55,2.952c0.074-0.093,0.163-0.153,0.266-0.182
		c-0.062-0.683-0.062-1.236,0-1.662C76.406,17.264,76.167,16.677,75.688,16.308z"/>
	<path fill="#27301E" d="M9.498,8.707c1.14-5.046-0.043-7.945-3.548-8.699C5.738,0.164,5.531,0.226,5.326,0.189
		c0.19,0.726,0.222,1.436,0.092,2.133C5.519,2.629,5.547,2.905,5.5,3.153c1.138,0.647,1.555,1.603,1.249,2.867
		c0.204,1.422-0.27,2.284-1.422,2.591v0.65c0.061,0.83,0.061,1.51,0,2.035c1.187,0.555,1.629,1.479,1.33,2.772
		c0.253,1.421-0.249,2.38-1.504,2.878l0.082,0.276l0.092,0.278v1.013c-0.014,0.567,0.018,1.061,0.092,1.48
		c2.558-0.291,3.976-1.68,4.256-4.167c0.416-1.755,0.268-3.39-0.44-4.904l-0.175-0.085L7.812,9.997
		C8.255,9.6,8.671,9.354,9.059,9.262C9.086,8.955,9.233,8.771,9.498,8.707z"/>
	<path fill="#27301E" d="M3.546,17.586v-0.734l0.091-0.373l-0.091-0.183c-0.069-0.974-0.039-1.81,0.091-2.506l-0.091-0.554
		c0-0.305-0.028-0.55-0.083-0.735l0.083-0.554l0.091-0.832c-0.076-0.447-0.106-0.85-0.091-1.204V9.357l0.091-0.191
		c-0.062-0.449-0.062-0.818,0-1.109C3.575,7.857,3.546,7.672,3.546,7.502l0.091-0.277V5.467L3.546,5.094V4.73V4.178L3.464,3.804
		l0.083-0.276V3.25l0.091-0.373c-0.062-0.832-0.062-1.542,0-2.133C3.549,0.673,3.49,0.581,3.464,0.468H2.747
		C2.406,0.318,2.082,0.226,1.775,0.189C1.21,0.254,0.735,0.41,0.353,0.658v0.277c0.088,0.832,0.119,1.511,0.093,2.036v2.494
		L0.353,5.657C0.428,5.715,0.459,5.775,0.446,5.84c-0.015,0.66-0.015,1.215,0,1.662v1.663c0,0.462-0.032,0.835-0.093,1.118
		L0.446,11.2l-0.093,1.855v6.288l0.174,0.278c1.05,0.405,2.056,0.376,3.019-0.086l0.185-0.65l-0.093-0.745L3.546,17.586z"/>
	<path fill="#27301E" d="M20.632,0.402H20.1c-0.6,0.037-1.099,0.008-1.492-0.084l-0.441,0.084h-0.357
		c-0.471-0.056-0.879-0.056-1.229,0h-0.265l-0.614-0.084l-0.186,0.084c-0.408-0.092-0.76-0.119-1.053-0.084h-0.265l-0.267-0.096
		h-0.706h-0.255h-1.146c-0.204,0.262-0.383,0.447-0.531,0.554c0.115,0.825,0.146,1.496,0.091,2.015V4.08
		c-0.062,0.703-0.091,1.254-0.091,1.652v12.473c-0.014,0.567,0.017,1.059,0.091,1.471l0.522,0.096l0.357-0.182h0.349l0.972,0.182
		h0.881h2.904l0.266,0.086h0.614h0.265h0.267c0.546-0.028,1.016,0.003,1.411,0.096c0.055-0.107,0.113-0.166,0.175-0.182l0.092-0.277
		v-0.458l0.083-0.277v-0.276v-1.833l0.092-0.278c-0.267-0.198-0.532-0.32-0.799-0.361l-0.439,0.086h-1.146h-0.266H17.02h-0.357
		l-0.266-0.086H16.14l-1.769,0.086l0.184-0.726v-0.277l0.083-0.649V12.79v-1.642l0.265,0.182h0.267h0.267h0.265
		c0.335,0.027,0.628,0.027,0.879,0l0.257,0.085c0.402-0.12,0.757-0.149,1.062-0.085l0.349-0.373l0.093-0.182v-0.736V8.206
		l-0.266-0.278h-0.613h-0.267H16.93c-0.792-0.055-1.498,0.004-2.119,0.182l-0.439-0.182V7.566l0.184-0.277V6.916
		c0.055-0.455,0.083-0.82,0.083-1.098V5.541V5.275c-0.028-0.726,0.003-1.34,0.091-1.845h0.349c0.327,0.015,0.62,0.079,0.88,0.191
		c0.469,0.015,0.883-0.017,1.237-0.095c0.444,0.028,0.795,0.028,1.054,0c0.941,0.119,1.704,0.119,2.291,0l0.266-0.459l-0.092-0.373
		l0.092-0.641c-0.178-0.439-0.178-0.838,0-1.193C20.704,0.713,20.646,0.56,20.632,0.402z"/>
	<path fill="#27301E" d="M32.266,17.469l-0.082-1.46l-0.266-0.362v-0.374l-0.174-0.725c-0.068-0.062-0.098-0.126-0.092-0.191v-0.266
		c-0.144-0.568-0.231-1.059-0.266-1.472c-0.178-0.603-0.293-1.117-0.349-1.545l-0.091-0.639c-0.186-0.598-0.27-1.146-0.256-1.652
		c-0.322-0.619-0.468-1.198-0.441-1.738c-0.149-0.49-0.208-0.917-0.173-1.279c-0.069-0.093-0.1-0.182-0.092-0.267
		c-0.048-0.106-0.106-0.171-0.175-0.191V4.859l-0.092-0.374l-0.082-0.725c-0.068-0.092-0.1-0.185-0.091-0.277l-0.083-0.361v-0.46
		c-0.184-0.781-0.273-1.42-0.266-1.918c-0.197-0.135-0.344-0.288-0.439-0.459c-0.887,0.25-1.648,0.156-2.281-0.277
		c-0.157,0.27-0.361,0.393-0.614,0.363l-0.091,0.555l0.174,0.542v0.556l0.184,0.543l0.082,0.64c0.15,0.178,0.208,0.362,0.174,0.554
		c0.055,0.32,0.113,0.562,0.175,0.725l0.091,0.461l0.094,0.639l0.174,0.458l0.082,0.181c0,0.569,0.062,1.027,0.184,1.377
		l0.083,0.458l0.091,0.361c0.049,0.427,0.133,0.761,0.257,1.003c0,0.355,0.029,0.66,0.091,0.916c0.089,0.462,0.12,0.859,0.092,1.193
		c0.069,0.058,0.096,0.119,0.082,0.182l0.092,0.182c0.103,0.583,0.219,1.07,0.348,1.46l-0.704,0.278
		c0.034,0.846-0.11,1.577-0.43,2.195l0.083,0.64c0.102,0.056,0.159,0.118,0.174,0.182c0.545-0.05,1.016-0.022,1.412,0.085
		c0.102,1.208,0.307,2.185,0.613,2.931h0.43l0.266,0.085c0.224-0.078,0.459-0.106,0.705-0.085h0.266l1.575,0.085v-0.639
		l-0.348-1.461L32.266,17.469z"/>
	<path fill="#27301E" d="M26.303,12.991v-0.276c-0.068-0.092-0.1-0.186-0.092-0.277l-0.174-1.822l-0.093-0.363V9.88l-0.083-0.182
		V9.336c-0.15-0.433-0.207-0.832-0.173-1.194c-0.13-0.54-0.188-1.026-0.175-1.46L24.901,6.5l-0.266,0.459v0.363l-0.174,0.735
		l-0.359,1.919c-0.178,0.611-0.262,1.129-0.256,1.555l-0.185,0.363v0.46l-0.257,1.278l-0.173,0.639l-0.092,0.544l-0.174,1.28
		c-0.259,0.788-0.405,1.46-0.439,2.013c-0.187,0.477-0.273,0.937-0.267,1.377l0.175,0.266h0.266h0.266l1.135,0.097
		c0.526-0.199,0.996-0.292,1.413-0.277l0.082-0.362l0.092-0.182c-0.014-0.661,0.043-1.212,0.174-1.652v-0.362l0.082-0.182
		l0.092-0.82v-0.277l0.092-0.277V14.73c0.205-0.484,0.289-0.941,0.256-1.376L26.303,12.991z"/>
</g>
</svg>
