<?xml version="1.0" encoding="utf-8"?>
<!-- Generator: Adobe Illustrator 15.0.0, SVG Export Plug-In  -->
<!DOCTYPE svg PUBLIC "-//W3C//DTD SVG 1.1//EN" "http://www.w3.org/Graphics/SVG/1.1/DTD/svg11.dtd" [
	<!ENTITY ns_flows "http://ns.adobe.com/Flows/1.0/">
]>
<svg version="1.1"
	 xmlns="http://www.w3.org/2000/svg" xmlns:xlink="http://www.w3.org/1999/xlink" xmlns:a="http://ns.adobe.com/AdobeSVGViewerExtensions/3.0/"
	 x="0px" y="0px" width="227px" height="27px" viewBox="-1.359 -1.19 227 27"
	 overflow="visible" enable-background="new -1.359 -1.19 227 27" xml:space="preserve">
<defs>
</defs>
<g>
	<g>
		<path fill="#27301E" d="M120.348,17.461c0.133,2.356,0.863,3.486,2.391,3.486c1.328,0,2.224-0.897,2.224-2.258
			c0-1.959-1.327-3.154-3.253-5.079c-2.622-2.623-4.481-4.548-4.481-7.635c0-3.387,2.556-5.876,5.61-5.876
			c2.987,0,5.144,2.158,5.41,5.81l-3.518,0.497c-0.133-2.024-0.664-2.921-1.992-2.921c-1.129,0-1.926,0.83-1.926,2.158
			c0,2.124,1.561,3.552,3.617,5.543c2.491,2.424,4.052,4.183,4.052,7.436c0,3.453-2.391,5.843-5.61,5.843
			c-3.519,0-5.81-2.356-5.976-6.473L120.348,17.461z"/>
	</g>
</g>
<g>
	<g>
		<path fill="#27301E" d="M135.821,0c3.287,0,5.444,2.224,5.444,6.008v12.018c0,4.148-2.059,6.407-5.577,6.407
			c-3.585,0-5.544-2.225-5.544-6.508V5.909C130.145,2.258,132.236,0,135.821,0z M137.547,5.676c0-1.627-0.631-2.423-1.858-2.423
			c-1.229,0-1.859,0.796-1.859,2.423v13.08c0,1.626,0.631,2.456,1.859,2.456c1.228,0,1.858-0.83,1.858-2.456V5.676z"/>
	</g>
</g>
<g>
	<g>
		<path fill="#27301E" d="M144.245,0.498h3.586v20.05h5.61v3.386h-9.196V0.498z"/>
	</g>
</g>
<g>
	<g>
		<path fill="#27301E" d="M158.07,0.498v18.158c0,1.427,0.831,2.224,1.926,2.224c1.096,0,1.826-0.797,1.826-2.224V0.498h3.685
			v17.527c0,4.148-2.024,6.407-5.544,6.407c-3.585,0-5.576-2.225-5.576-6.508V0.498H158.07z"/>
	</g>
</g>
<g>
	<g>
		<path fill="#27301E" d="M167.024,0.498h11.153v3.386h-3.785v20.05h-3.618V3.884h-3.75V0.498z"/>
	</g>
</g>
<g>
	<g>
		<path fill="#27301E" d="M179.634,0.498h3.685v23.436h-3.685V0.498z"/>
	</g>
</g>
<g>
	<g>
		<path fill="#27301E" d="M191.977,0c3.286,0,5.443,2.224,5.443,6.008v12.018c0,4.148-2.059,6.407-5.577,6.407
			c-3.585,0-5.542-2.225-5.542-6.508V5.909C186.301,2.258,188.392,0,191.977,0z M193.702,5.676c0-1.627-0.63-2.423-1.859-2.423
			c-1.228,0-1.858,0.796-1.858,2.423v13.08c0,1.626,0.631,2.456,1.858,2.456c1.229,0,1.859-0.83,1.859-2.456V5.676z"/>
	</g>
</g>
<g>
	<g>
		<path fill="#27301E" d="M200.401,0.498h3.253l4.581,14.009c0.067,0.198,0.331,1.028,0.697,2.489
			c-0.3-1.66-0.399-2.755-0.399-3.154V0.498h3.387v23.436h-3.387l-4.414-12.946c-0.199-0.597-0.498-1.427-0.764-2.556
			c0.266,1.659,0.398,2.755,0.398,3.253v12.249h-3.353V0.498z"/>
	</g>
</g>
<g>
	<g>
		<path fill="#27301E" d="M217.009,17.461c0.133,2.356,0.863,3.486,2.391,3.486c1.328,0,2.224-0.897,2.224-2.258
			c0-1.959-1.327-3.154-3.253-5.079c-2.622-2.623-4.48-4.548-4.48-7.635c0-3.387,2.556-5.876,5.609-5.876
			c2.988,0,5.146,2.158,5.411,5.81l-3.52,0.497c-0.133-2.024-0.663-2.921-1.991-2.921c-1.129,0-1.925,0.83-1.925,2.158
			c0,2.124,1.56,3.552,3.617,5.543c2.491,2.424,4.051,4.183,4.051,7.436c0,3.453-2.391,5.843-5.61,5.843
			c-3.519,0-5.809-2.356-5.975-6.473L217.009,17.461z"/>
	</g>
</g>
<path fill="#27301E" d="M72.288,0.807c-0.814-0.26-1.558-0.294-2.229-0.104l-0.212-0.116c-0.374,0.164-0.726,0.204-1.059,0.116
	l-0.424,0.324v1.104l0.112,0.662L68.364,3.13l0.112,0.546c-0.092,1.401-0.092,2.544,0,3.426v1.883v0.44v3.31l0.1,0.222
	c-0.107,0.553-0.142,1.029-0.1,1.428l0.1,0.661l-0.1,0.558l0.1,0.662l-0.1,0.558l0.1,0.325v6.294l0.112,0.662
	c0.647-0.051,1.212,0.021,1.693,0.221c0.83-0.225,1.537-0.337,2.118-0.337v-0.883V22.78v-2.206v-0.441V18.25v-0.324v-1.323v-0.338
	v-0.337V14.5v-0.337v-0.325V13.5v-0.766v-0.441v-1.986V8.764V8.205V7.102V6.764V4.896V4.338V4.013V3.676l-0.112-0.222
	c0-0.362,0.037-0.657,0.112-0.882L72.288,0.807z"/>
<path fill="#27301E" d="M45.525,19.912l-0.1-0.441v-0.338v-0.791l-0.112-0.338c0.165-0.787,0.165-1.497,0-2.129l0.112-0.454
	c-0.125-0.303-0.162-0.601-0.112-0.896v-0.337v-1.467v-0.337v-0.339v-1.453V9.918V9.243l-0.112-0.792
	c-0.017-0.597,0.021-1.12,0.112-1.57l-0.112-0.675c0.041-0.58,0.041-1.068,0-1.466V4.403c0-0.373,0.038-0.672,0.112-0.896
	c-0.092-0.078-0.129-0.151-0.112-0.221c0.092-1.013,0.059-1.912-0.1-2.699h-0.436h-1.832h-0.323h-1.295v0.337
	c-0.034,0.58-0.034,1.069,0,1.467v5.386c-0.017,1.143,0.021,2.082,0.111,2.816c-0.074,0.822-0.041,1.532,0.1,2.129v0.338l-0.1,0.338
	v3.257c0.033,0.112,0.033,0.225,0,0.337v0.338c0.092,0.883,0.126,1.631,0.1,2.245c0.216,0.415,0.324,0.792,0.324,1.13
	c1.013,2.059,2.454,3.257,4.322,3.595c0.092-0.112,0.2-0.187,0.324-0.221c-0.075-0.831-0.075-1.506,0-2.025
	C46.397,21.076,46.106,20.361,45.525,19.912z"/>
<path fill="#27301E" d="M52.75,17.212V16.55v-0.337v-0.455l-0.1-1.907v-0.337v-0.338v-2.024v-0.454V10.36V9.918V7.894V7.438
	L52.538,6.66l0.112-0.337V5.985l-0.112-0.233l0.112-0.338c-0.125-0.536-0.162-1.021-0.112-1.453
	c0.091-1.272,0.021-2.357-0.212-3.258l-0.224-0.116h-0.425h-0.323h-0.436h-1.944c-0.265,0.45-0.406,0.86-0.423,1.232v1.467
	c0.108,0.433,0.142,0.805,0.1,1.117c0,0.717-0.033,1.318-0.1,1.803v1.232l0.1,0.676l0.112,7.424c0.199,1.03,0.308,1.852,0.324,2.466
	l0.111,0.558l-0.225,0.117c-0.157,0.805-0.48,1.441-0.971,1.908V21.6c0.091,0.077,0.129,0.155,0.112,0.233v0.324
	c-0.017,0.7-0.017,1.302,0,1.804c0.166,0.096,0.273,0.208,0.323,0.338c1.744-0.728,3.04-1.852,3.887-3.375
	c0.065-0.319,0.174-0.58,0.324-0.778c0.032-0.623,0.104-1.15,0.212-1.584l-0.112-0.778V17.212z"/>
<path fill="#27301E" d="M65.645,0.587L65.222,0.69h-0.847h-0.523h-0.323h-0.735h-0.325c-0.771,0.13-1.439,0.168-2.004,0.116h-0.312
	h-1.905h-1.158h-0.324c-0.831-0.034-1.537,0-2.118,0.104l-0.1,0.22l0.1,0.559v1.208c-0.033,0.735,0.038,1.361,0.212,1.881
	l0.324,0.104h0.312h0.322c0.524-0.033,0.982,0.005,1.371,0.117c0.424-0.147,0.81-0.221,1.158-0.221l0.212,0.221l0.112,1.428
	l-0.112,0.767v5.516c0.075,0.675,0.075,1.263,0,1.765v0.429c0.107,0.553,0.107,1.034,0,1.439c0.184,1.134,0.22,2.09,0.112,2.869
	c0.091,0.069,0.125,0.143,0.1,0.221V21.3c0.092,0.589,0.059,1.138-0.1,1.648l0.424,1.324c0.456,0,0.843-0.073,1.157-0.22
	c1.038,0.216,1.919,0.142,2.642-0.222v-0.766v-0.778v-0.325v-0.441c-0.1-0.699-0.133-1.288-0.1-1.765V18.77v-0.778v-0.662v-0.662
	c0.017-0.675-0.021-1.263-0.112-1.765l0.112-0.429v-0.662l-0.112-0.44l0.112-0.662l-0.112-0.441v-0.441v-1.22v-0.546V8.633V8.191
	V6.311V5.985V4.661l0.324,0.117l0.423-0.117l0.212,0.117h0.312h0.324h2.104c0.266-1.488,0.195-2.852-0.212-4.088L65.645,0.587z"/>
<path fill="#27301E" d="M98.951,17.212V16.55v-0.337v-0.455l-0.1-1.907v-0.337v-0.338v-2.024v-0.454V10.36V9.918V7.894V7.438
	L98.739,6.66l0.112-0.337V5.985l-0.112-0.233l0.112-0.338c-0.125-0.536-0.161-1.021-0.112-1.453
	c0.092-1.272,0.021-2.357-0.212-3.258l-0.224-0.116H97.88h-0.324H97.12h-1.943c-0.265,0.45-0.406,0.86-0.423,1.232v1.467
	c0.107,0.433,0.141,0.805,0.1,1.117c0,0.717-0.033,1.318-0.1,1.803v1.232l0.1,0.676l0.112,7.424c0.199,1.03,0.307,1.852,0.323,2.466
	l0.112,0.558l-0.225,0.117c-0.157,0.805-0.481,1.441-0.972,1.908V21.6c0.092,0.077,0.129,0.155,0.112,0.233v0.324
	c-0.017,0.7-0.017,1.302,0,1.804c0.166,0.096,0.274,0.208,0.324,0.338c1.744-0.728,3.039-1.852,3.886-3.375
	c0.066-0.319,0.175-0.58,0.324-0.778c0.033-0.623,0.104-1.15,0.211-1.584l-0.111-0.778V17.212z"/>
<path fill="#27301E" d="M111.96,20.535l-0.411-0.222c-1.005,0.217-1.886,0.217-2.642,0c-0.564,0.112-1.06,0.078-1.482-0.104
	c-0.88,0.216-1.656,0.143-2.329-0.221v-0.778v-0.662v-0.766v-0.661l0.112-0.767l-0.112-0.661v-0.325v-0.441v-0.883v-0.324v-0.337
	c-0.032-0.771,0.005-1.393,0.112-1.87l-0.212-0.765V9.982l0.1-0.661V8.984V8.659c-0.1-0.571-0.133-1.086-0.1-1.545l0.1-0.324
	c-0.066-0.424-0.066-0.791,0-1.104l-0.1-0.44c0.158-1.739,0.088-3.202-0.212-4.388c-0.789-0.146-1.457-0.186-2.005-0.116
	c-0.066,0.095-0.137,0.134-0.212,0.116h-0.847l-0.735,0.104l-0.211,0.547l0.1,12.212l-0.1,0.766c0.065,0.719,0.065,1.342,0,1.869
	c0.017,0.771,0.017,1.394,0,1.869v5.503l0.311,0.221l0.423,0.104h0.425l0.424,0.116h0.423h1.369h0.324h0.523h0.424h0.312h0.535
	h0.523h0.324h1.258h0.323c0.947-0.06,1.757-0.026,2.429,0.104c0.383-0.096,0.698-0.203,0.947-0.324V23.61
	C112.138,22.348,112.101,21.322,111.96,20.535z"/>
<path fill="#27301E" d="M84.76,0.444l-0.635,0.103H83.59h-0.324l-0.212-0.103c-0.53,0.051-0.954,0.051-1.27,0l-0.748,0.103h-1.495
	h-0.322c-0.333-0.068-0.616-0.103-0.848-0.103H77.2l-0.324-0.117h-2.131l-0.423,0.558v15.757v0.558v3.439l-0.111,0.337l0.111,0.559
	c-0.166,0.995-0.203,1.809-0.111,2.44l0.423,0.22l0.324-0.116c0.963-0.183,1.814-0.144,2.554,0.116l0.535-0.22v-1.441v-0.454v-1.985
	V18.86v-0.441v-0.441v-0.441v-0.44V15.2v-0.324v-1.337l0.324,0.104h0.424h0.424h0.746h1.919l0.423-0.765v-0.454V12.1l-0.1-0.222
	c0.083-0.727,0.083-1.394,0-1.999l-0.535-0.233c-1.388,0.156-2.559,0.082-3.514-0.221l0.101-0.546l-0.101-0.337l0.101-0.559
	l-0.101-0.882V6.764l0.101-1.998c0.307-0.242,0.593-0.389,0.858-0.441l0.424,0.104l0.536-0.104c0.44,0.095,0.831,0.13,1.171,0.104
	h0.536h0.312h0.423l0.323-0.104l0.212,0.104l0.212-0.104c0.681,0.113,1.249,0.147,1.707,0.104c0.514-1.29,0.655-2.544,0.424-3.765
	L84.76,0.444z"/>
<path fill="#27301E" d="M91.726,19.912l-0.098-0.441v-0.338v-0.791l-0.112-0.338c0.165-0.787,0.165-1.497,0-2.129l0.112-0.454
	c-0.125-0.303-0.163-0.601-0.112-0.896v-0.337v-1.467v-0.337v-0.339v-1.453V9.918V9.243l-0.112-0.792
	c-0.018-0.597,0.021-1.12,0.112-1.57l-0.112-0.675c0.041-0.58,0.041-1.068,0-1.466V4.403c0-0.373,0.037-0.672,0.112-0.896
	c-0.092-0.078-0.13-0.151-0.112-0.221c0.091-1.013,0.058-1.912-0.1-2.699h-0.437h-1.831h-0.324h-1.295v0.337
	c-0.033,0.58-0.033,1.069,0,1.467v5.386c-0.017,1.143,0.021,2.082,0.112,2.816c-0.074,0.822-0.042,1.532,0.101,2.129v0.338
	l-0.101,0.338v3.257c0.033,0.112,0.033,0.225,0,0.337v0.338c0.092,0.883,0.125,1.631,0.101,2.245
	c0.216,0.415,0.323,0.792,0.323,1.13c1.013,2.059,2.454,3.257,4.322,3.595c0.091-0.112,0.199-0.187,0.324-0.221
	c-0.075-0.831-0.075-1.506,0-2.025C92.6,21.076,92.309,20.361,91.726,19.912z"/>
<path fill="#27301E" d="M11.135,10.658c1.388-6.144-0.053-9.674-4.321-10.591c-0.258,0.19-0.511,0.264-0.76,0.221
	c0.232,0.883,0.27,1.747,0.112,2.596c0.124,0.373,0.157,0.71,0.1,1.012c1.386,0.788,1.893,1.951,1.52,3.491
	c0.248,1.731-0.328,2.782-1.731,3.154v0.792c0.074,1.012,0.074,1.839,0,2.479c1.445,0.675,1.984,1.801,1.619,3.375
	c0.308,1.73-0.303,2.898-1.831,3.504l0.1,0.337l0.112,0.339v1.232c-0.017,0.692,0.021,1.292,0.112,1.804
	c3.114-0.355,4.841-2.046,5.182-5.075c0.506-2.137,0.327-4.127-0.536-5.97L10.6,13.254l-1.519-1.025
	c0.539-0.485,1.046-0.783,1.519-0.896C10.633,10.961,10.812,10.736,11.135,10.658z"/>
<path fill="#27301E" d="M3.887,21.469v-0.895l0.111-0.454l-0.111-0.222c-0.084-1.185-0.047-2.202,0.111-3.05l-0.111-0.675
	c0-0.371-0.034-0.67-0.1-0.896l0.1-0.674l0.111-1.012c-0.092-0.545-0.129-1.035-0.111-1.467V11.45l0.111-0.233
	c-0.075-0.546-0.075-0.996,0-1.351C3.923,9.624,3.887,9.398,3.887,9.191l0.111-0.338V6.713L3.887,6.258V5.816V5.143l-0.1-0.455
	l0.1-0.337V4.013l0.111-0.454c-0.075-1.013-0.075-1.877,0-2.597C3.891,0.876,3.82,0.764,3.787,0.626H2.914
	C2.499,0.444,2.105,0.331,1.731,0.288C1.043,0.365,0.465,0.556,0,0.858v0.338c0.107,1.013,0.145,1.839,0.113,2.479v3.037L0,6.945
	c0.091,0.069,0.129,0.144,0.113,0.222c-0.019,0.804-0.019,1.479,0,2.024v2.025c0,0.562-0.039,1.017-0.113,1.362l0.113,1.116
	L0,15.953v7.657l0.212,0.338c1.278,0.493,2.504,0.458,3.675-0.104l0.225-0.792l-0.113-0.908L3.887,21.469z"/>
<path fill="#27301E" d="M24.691,0.547h-0.647c-0.73,0.044-1.338,0.009-1.818-0.103l-0.536,0.103h-0.436
	c-0.573-0.068-1.071-0.068-1.496,0h-0.322l-0.748-0.103l-0.225,0.103c-0.497-0.112-0.926-0.146-1.282-0.103h-0.323l-0.325-0.117
	h-0.859h-0.311h-1.396c-0.248,0.319-0.465,0.545-0.647,0.675c0.141,1.004,0.179,1.821,0.111,2.452v1.571
	c-0.074,0.856-0.111,1.526-0.111,2.012v15.185c-0.017,0.692,0.021,1.29,0.111,1.792l0.636,0.116l0.436-0.221h0.424l1.183,0.221
	h1.072h3.537l0.323,0.104h0.748h0.323h0.324c0.664-0.034,1.237,0.004,1.719,0.117c0.066-0.13,0.138-0.203,0.212-0.221l0.112-0.338
	v-0.558l0.1-0.338V22.56v-2.232l0.112-0.338c-0.324-0.242-0.647-0.39-0.972-0.44l-0.536,0.104h-1.395h-0.323h-1.172h-0.436
	l-0.324-0.104h-0.312l-2.154,0.104l0.224-0.883v-0.338l0.101-0.791v-2.012V13.63l0.323,0.221h0.324h0.324h0.323
	c0.407,0.035,0.765,0.035,1.07,0l0.312,0.104c0.49-0.146,0.922-0.182,1.295-0.104l0.424-0.453l0.112-0.222V12.28v-2.232L21.577,9.71
	H20.83h-0.324h-0.323c-0.964-0.068-1.823,0.005-2.579,0.221L17.068,9.71V9.27l0.224-0.338V8.478
	c0.066-0.554,0.101-0.999,0.101-1.338V6.803V6.479c-0.034-0.883,0.004-1.63,0.111-2.245h0.424c0.399,0.018,0.756,0.096,1.071,0.233
	c0.572,0.018,1.075-0.021,1.507-0.116c0.541,0.035,0.968,0.035,1.283,0c1.146,0.146,2.075,0.146,2.79,0l0.323-0.559l-0.111-0.454
	l0.111-0.779c-0.216-0.536-0.216-1.021,0-1.453C24.778,0.924,24.708,0.738,24.691,0.547z"/>
<path fill="#27301E" d="M38.857,21.326l-0.1-1.777l-0.324-0.441v-0.455l-0.211-0.883c-0.084-0.077-0.12-0.154-0.112-0.233v-0.324
	c-0.175-0.691-0.282-1.288-0.324-1.791c-0.216-0.735-0.357-1.362-0.424-1.882l-0.111-0.778c-0.226-0.728-0.328-1.396-0.312-2.012
	c-0.391-0.753-0.569-1.458-0.536-2.116c-0.183-0.597-0.254-1.116-0.211-1.558c-0.084-0.112-0.121-0.22-0.112-0.324
	c-0.059-0.13-0.13-0.207-0.212-0.233V5.973l-0.112-0.455l-0.1-0.882c-0.083-0.112-0.121-0.226-0.111-0.338l-0.101-0.44V3.299
	c-0.224-0.952-0.332-1.73-0.323-2.337c-0.241-0.163-0.42-0.35-0.536-0.558c-1.079,0.304-2.006,0.19-2.777-0.337
	c-0.192,0.328-0.44,0.477-0.748,0.441l-0.111,0.675l0.212,0.661v0.676l0.224,0.661l0.1,0.779c0.183,0.217,0.253,0.442,0.212,0.675
	c0.066,0.39,0.137,0.684,0.212,0.882l0.111,0.56l0.113,0.778l0.212,0.558l0.1,0.221c0,0.692,0.075,1.251,0.224,1.675l0.101,0.558
	l0.111,0.44c0.059,0.52,0.161,0.927,0.312,1.222c0,0.433,0.036,0.804,0.111,1.115c0.108,0.562,0.146,1.047,0.112,1.453
	c0.084,0.07,0.116,0.144,0.1,0.221l0.112,0.221c0.124,0.71,0.266,1.303,0.423,1.778l-0.858,0.338
	c0.041,1.03-0.134,1.921-0.523,2.673l0.101,0.78c0.123,0.067,0.194,0.143,0.211,0.22c0.664-0.061,1.237-0.026,1.719,0.104
	c0.124,1.47,0.374,2.66,0.747,3.568h0.523l0.324,0.104c0.273-0.095,0.56-0.129,0.859-0.104h0.323l1.918,0.104v-0.778l-0.423-1.778
	L38.857,21.326z"/>
<path fill="#27301E" d="M31.596,15.875v-0.337c-0.083-0.112-0.121-0.225-0.112-0.338l-0.211-2.219L31.16,12.54v-0.454l-0.101-0.221
	v-0.441c-0.183-0.527-0.253-1.013-0.211-1.454c-0.158-0.657-0.229-1.25-0.212-1.778l-0.748-0.221l-0.323,0.559v0.441l-0.212,0.896
	l-0.437,2.336c-0.216,0.745-0.319,1.376-0.312,1.895l-0.224,0.441v0.56l-0.312,1.557l-0.211,0.778l-0.112,0.662l-0.212,1.558
	c-0.315,0.96-0.493,1.777-0.535,2.452c-0.226,0.58-0.333,1.139-0.324,1.675l0.212,0.324h0.324h0.323l1.382,0.117
	c0.64-0.242,1.213-0.355,1.72-0.337l0.1-0.442l0.112-0.22c-0.017-0.805,0.053-1.476,0.211-2.012v-0.442l0.101-0.22l0.112-0.999
	v-0.338l0.111-0.338v-0.882c0.25-0.589,0.353-1.146,0.312-1.675L31.596,15.875z"/>
</svg>
