<?xml version="1.0" encoding="utf-8"?>
<!-- Generator: Adobe Illustrator 15.0.0, SVG Export Plug-In . SVG Version: 6.00 Build 0)  -->
<!DOCTYPE svg PUBLIC "-//W3C//DTD SVG 1.1//EN" "http://www.w3.org/Graphics/SVG/1.1/DTD/svg11.dtd">
<svg version="1.1" id="Layer_1" xmlns="http://www.w3.org/2000/svg" xmlns:xlink="http://www.w3.org/1999/xlink" x="0px" y="0px"
	 width="208.236px" height="20px" viewBox="0 0 208.236 20" enable-background="new 0 0 208.236 20" xml:space="preserve">
<g opacity="0.5">
	<path fill="#44C6F3" d="M3.032,3.339h-3.039V0.376h9.566v2.963h-3.04v16.247H3.031L3.032,3.339L3.032,3.339z M10.425,0.376h3.525
		v7.729h2.213V0.376h3.529v19.251h-3.529v-8.182H13.95v8.141h-3.525V0.376z M21.793,0.376h3.526v19.251h-3.526V0.376z
		 M29.858,14.027c0,1.1,0,3,1.5,2.963c1.163,0,1.576-1.088,1.576-1.877c0-3.412-6.379-4.199-6.379-9.904
		c0-2.888,1.575-5.252,4.541-5.252c3.15,0,4.399,2.399,4.5,5.853h-3.151c0-1.088,0-2.89-1.387-2.89c-0.827,0-1.316,0.714-1.316,1.8
		c0,3.301,6.4,4.4,6.4,9.979c0,2.928-1.688,5.295-4.839,5.295c-3.753,0-4.503-3.305-4.503-5.932h3.058V14.027z"/>
	<path fill="#FFFFFF" d="M43.328,7.315c0-3.189-0.413-4.391-1.274-4.391c-0.715,0-1.465,0.49-1.465,7c0,6.302,0.4,7.001,1.5,7.019
		c1.163,0,1.426-1.801,1.5-4.576l2.966,0.146c0,3.344-0.487,7.393-4.577,7.4c-3.753,0-4.99-3.678-4.99-9.979
		c0-7.354,2.213-9.979,4.99-9.979c4.051,0,4.5,3.7,4.5,7.241L43.328,7.315z M48.43,0.426h3.528v7.729h2.213V0.376h3.526v19.251
		h-3.526v-8.182h-2.213v8.141H48.43V0.376V0.426z M61.677,0.376h5.062l2.366,19.251h-3.378l-0.525-4.283h-2.851L61.9,19.586h-2.927
		L61.677,0.376z M63.927,3.339h-0.038l-1.125,9.192h2.175L63.927,3.339z M70.268,0.376h3.414l3.225,10.169h0.039V0.376h2.815v19.251
		H77.02L73.27,7.992h-0.039v11.635h-2.962L70.268,0.376L70.268,0.376z M87.902,7.226c0-0.901,0.224-4.277-1.313-4.277
		c-0.863,0-1.502,0.826-1.502,6.979c0,6.302,0.601,7.101,1.7,7.101c1.316,0,1.428-2.662,1.428-3.562h-1.312v-2.812h4.276v8.967h-1.5
		l-0.489-1.275c-0.525,0.826-1.576,1.652-2.777,1.701c-3.75,0-4.99-3.682-4.99-9.983c0-7.354,2.214-9.979,4.99-9.979
		c2.251,0,4.601,1.1,4.601,6.003v1.238h-3.11V7.226z M92.931,0.426h7.952V3.39h-4.465v4.916h3.264v3.151h-3.264v5.252h4.615v2.969
		h-8.142V0.376h0.039V0.426z M104.823,14.027c0,1.1,0,3,1.5,2.963c1.164,0,1.572-1.088,1.572-1.877c0-3.412-6.374-4.199-6.374-9.904
		c0-2.888,1.576-5.252,4.538-5.252c3.15,0,4.4,2.399,4.5,5.853h-3.15c0-1.088,0-2.89-1.391-2.89c-0.826,0-1.312,0.714-1.312,1.8
		c0,3.301,6.4,4.4,6.4,9.979c0,2.928-1.684,5.295-4.836,5.295c-3.754,0-4.504-3.305-4.504-5.932h3.057V14.027z"/>
	<path fill="#44C6F3" d="M112.44,0.376h7.951v2.963h-4.461v4.916h3.264v3.151h-3.264v5.254h4.613v2.967h-8.139V0.376H112.44z
		 M121.294,0.376h3.416l1.648,13.507h0.039l1.801-13.507h2.852l-2.887,19.251h-4.018L121.294,0.376z M131.915,0.376h7.955v2.963
		h-4.43v4.916h3.264v3.151h-3.264v5.254h4.615v2.967h-8.141V0.376z M141.442,0.376h3.939c3.342,0,5.602,1.4,5.602,5.4
		c0,1.613-0.49,3.791-2.066,4.69l2.066,9.08h-3.488l-1.652-8.254h-0.826v8.254h-3.527V0.376H141.442z M144.93,8.517h0.715
		c1.314,0,1.805-1.312,1.805-2.662c0-2.063-0.756-2.666-1.953-2.666h-0.525v5.328H144.93z M154.048,12.156l-3.223-11.78h3.488
		l1.688,7.542h0.035l1.807-7.542h2.928l-3.195,11.481v7.77h-3.527V12.156z M163.094,3.339h-3.039V0.376h9.566v2.963h-3.041v16.247
		h-3.527V3.339H163.094z M170.483,0.376h3.527v7.729h2.215V0.376h3.521v19.251h-3.521v-8.182h-2.213v8.141h-3.529V0.376
		L170.483,0.376z M181.85,0.376h3.527v19.251h-3.527V0.376z M187.368,0.376h3.416l3.223,10.169h0.041V0.376h2.814v19.251h-2.744
		l-3.752-11.635h-0.031v11.635h-2.967V0.376z M204.966,7.242c0-0.902,0.225-4.278-1.311-4.278c-0.867,0-1.504,0.826-1.504,7
		c0,6.302,0.6,7.101,1.699,7.054c1.314,0,1.428-2.662,1.428-3.562h-1.314v-2.812h4.279v8.967h-1.518l-0.484-1.275
		c-0.523,0.826-1.574,1.652-2.779,1.652c-3.754,0-4.986-3.682-4.986-9.982c0-7.354,2.213-9.979,4.986-9.979
		c2.256,0,4.602,1.101,4.602,6.004v1.238h-3.098V7.242z"/>
</g>
</svg>
