<?xml version="1.0" encoding="utf-8"?>
<!-- Generator: Adobe Illustrator 15.0.0, SVG Export Plug-In . SVG Version: 6.00 Build 0)  -->
<!DOCTYPE svg PUBLIC "-//W3C//DTD SVG 1.1//EN" "http://www.w3.org/Graphics/SVG/1.1/DTD/svg11.dtd">
<svg version="1.1" id="Layer_1" xmlns="http://www.w3.org/2000/svg" xmlns:xlink="http://www.w3.org/1999/xlink" x="0px" y="0px"
	 width="255px" height="27px" viewBox="0 0 255 27" enable-background="new 0 0 255 27" xml:space="preserve">
<g opacity="0.5">
	<path fill="#49C8EF" d="M0,0.5h11.168v3.389H7.379v20.076H3.757V3.889H0V0.5z"/>
	<path fill="#49C8EF" d="M16.454,0.5v9.572h3.624V0.5H23.7v23.465h-3.622V13.461h-3.624v10.504h-3.589V0.5H16.454z"/>
	<path fill="#49C8EF" d="M26.417,0.5h3.688v23.465h-3.688V0.5z"/>
	<path fill="#49C8EF" d="M35.234,17.484c0.134,2.358,0.866,3.488,2.394,3.488c1.33,0,2.228-0.896,2.228-2.261
		c0-1.961-1.329-3.155-3.258-5.084c-2.626-2.627-4.486-4.555-4.486-7.646c0-3.391,2.559-5.883,5.617-5.883
		c2.992,0,5.152,2.16,5.418,5.816l-3.523,0.5c-0.134-2.029-0.665-2.926-1.995-2.926c-1.129,0-1.927,0.83-1.927,2.16
		c0,2.129,1.562,3.557,3.623,5.551c2.492,2.428,4.056,4.188,4.056,7.444c0,3.457-2.394,5.853-5.617,5.853
		c-3.523,0-5.817-2.361-5.983-6.481L35.234,17.484z"/>
	<path fill="#FFFFFF" d="M45.235,5.916C45.235,2.26,47.328,0,50.918,0c3.291,0,5.45,2.229,5.45,6.016v2.262h-3.722V5.684
		c0-1.629-0.631-2.428-1.86-2.428c-1.231,0-1.862,0.799-1.862,2.428V18.78c0,1.629,0.631,2.459,1.862,2.459
		c1.229,0,1.86-0.83,1.86-2.459v-3.19h3.722v2.459c0,4.156-2.06,6.416-5.582,6.416c-3.657,0-5.551-2.229-5.551-6.516V5.916z"/>
	<path fill="#FFFFFF" d="M62.196,0.5v9.572h3.623V0.5h3.624v23.465h-3.624V13.461h-3.623v10.504h-3.59V0.5H62.196z"/>
	<path fill="#FFFFFF" d="M74.812,0.5h4.719l3.857,23.465h-3.724l-0.731-5.084h-3.656l-0.764,5.084h-3.556L74.812,0.5z
		 M78.501,15.557l-1.229-9.805H77.04l-1.295,9.805H78.501z"/>
	<path fill="#FFFFFF" d="M85.056,0.5h3.257L92.9,14.525c0.067,0.199,0.333,1.031,0.698,2.492c-0.299-1.662-0.399-2.759-0.399-3.157
		V0.5h3.392v23.465h-3.392l-4.42-12.963c-0.2-0.598-0.499-1.43-0.765-2.559c0.266,1.66,0.398,2.758,0.398,3.258v12.264h-3.356V0.5z"
		/>
	<path fill="#FFFFFF" d="M99.146,5.916c0-3.656,2.095-5.916,5.685-5.916c3.39,0,5.219,2.027,5.219,6.016v2.16h-3.491V5.684
		c0-1.629-0.632-2.428-1.861-2.428c-1.229,0-1.86,0.799-1.86,2.428V18.78c0,1.629,0.631,2.459,1.86,2.459s1.861-0.83,1.861-2.459
		v-3.656h-2.194v-2.992h5.686v11.834h-1.729l-0.698-1.629c-0.796,1.463-1.894,2.129-3.489,2.129c-3.224,0-4.986-2.26-4.986-6.516
		V5.916H99.146z"/>
	<path fill="#FFFFFF" d="M112.705,0.5h9.441v3.389h-5.818v6.15h4.189v3.389h-4.189v7.014h5.818v3.523h-9.441V0.5z"/>
	<path fill="#FFFFFF" d="M126.138,17.484c0.133,2.358,0.863,3.488,2.394,3.488c1.329,0,2.227-0.896,2.227-2.261
		c0-1.961-1.329-3.155-3.258-5.084c-2.626-2.627-4.486-4.555-4.486-7.646c0-3.391,2.559-5.883,5.615-5.883
		c2.992,0,5.154,2.16,5.419,5.816l-3.521,0.5c-0.135-2.029-0.666-2.926-1.994-2.926c-1.132,0-1.928,0.83-1.928,2.16
		c0,2.129,1.562,3.557,3.622,5.551c2.494,2.428,4.056,4.188,4.056,7.444c0,3.457-2.394,5.853-5.617,5.853
		c-3.523,0-5.816-2.361-5.982-6.481L126.138,17.484z"/>
	<path fill="#49C8EF" d="M136.568,0.5h9.438v3.389h-5.815v6.15h4.188v3.389h-4.188v7.014h5.815v3.523h-9.438V0.5z"/>
	<path fill="#49C8EF" d="M149.939,0.5l2.162,13.893c0.197,1.265,0.398,2.859,0.398,4.885c0,0.136,0,0.302,0,0.435
		c0.064-2.396,0.23-4.153,0.396-5.317L154.992,0.5h3.558l-4.155,23.465h-3.789L146.417,0.5H149.939z"/>
	<path fill="#49C8EF" d="M160.009,0.5h9.441v3.389h-5.817v6.15h4.188v3.389h-4.188v7.014h5.817v3.523h-9.441V0.5z"/>
	<path fill="#49C8EF" d="M175.131,23.965h-3.621V0.5h5.316c3.923,0,5.65,1.959,5.65,6.779c0,2.793-0.598,4.586-2.293,5.783
		l2.659,10.902h-3.757l-2.229-9.873h-1.729v9.874H175.131z M175.131,10.703h1.432c1.762,0,2.226-0.963,2.226-3.557
		c0-2.494-0.599-3.258-2.358-3.258h-1.298L175.131,10.703L175.131,10.703z"/>
	<path fill="#49C8EF" d="M186.1,0.5l2.357,9.371h0.234l2.227-9.371h3.689l-4.221,13.727v9.738h-3.623v-9.307L182.441,0.5H186.1z"/>
	<path fill="#49C8EF" d="M193.65,0.5h11.168v3.389h-3.791v20.076h-3.621V3.889h-3.756V0.5L193.65,0.5z"/>
	<path fill="#49C8EF" d="M210.258,0.5v9.572h3.624V0.5h3.623v23.465h-3.623V13.461h-3.624v10.504h-3.59V0.5H210.258z"/>
	<path fill="#49C8EF" d="M220.372,0.5h3.69v23.465h-3.69V0.5z"/>
	<path fill="#49C8EF" d="M226.831,0.5h3.258l4.587,14.025c0.067,0.199,0.333,1.031,0.699,2.492c-0.3-1.662-0.398-2.759-0.398-3.157
		V0.5h3.391v23.465h-3.391l-4.42-12.963c-0.199-0.598-0.498-1.43-0.767-2.559c0.269,1.66,0.399,2.758,0.399,3.258v12.264h-3.358V0.5
		z"/>
	<path fill="#49C8EF" d="M241.077,5.916c0-3.656,2.094-5.916,5.685-5.916c3.391,0,5.219,2.027,5.219,6.016v2.16h-3.489V5.684
		c0-1.629-0.632-2.428-1.862-2.428c-1.229,0-1.861,0.799-1.861,2.428V18.78c0,1.629,0.633,2.459,1.861,2.459
		c1.23,0,1.862-0.83,1.862-2.459v-3.656h-2.195v-2.992h5.685v11.834h-1.729l-0.697-1.629c-0.797,1.463-1.895,2.129-3.49,2.129
		c-3.224,0-4.984-2.26-4.984-6.516V5.916H241.077z"/>
</g>
</svg>
